# xmcd
#
# Track frame offsets:
#	150
#	13265
#	26995
#	41308
#	57745
#	71463
#	85650
#	95698
#	112030
#	125245
#	142415
#	155235
#	170770
#	181393
#	194468
#	207788
#	220850
#	233923
#
# Disc length: 3338 seconds
#
# Revision: 2
# Processed by: cddbd v1.5.1PL0 Copyright (c) Steve Scherf et al.
# Submitted via: audiograbber 1.82.02
#
DISCID=1d0d0812
DTITLE=Billy Holiday - The Natural Collection CD2
DYEAR=1900
DGENRE=
TTITLE0=I've Got My Love To Keep Me Warm
TTITLE1=Gettin' Some Fun Out Of Life
TTITLE2=This Is My Last Affair
TTITLE3=Stormy Wheather
TTITLE4=Easy Living
TTITLE5=That's Life I Guess
TTITLE6=Trav'lin All Alone
TTITLE7=I Cover The Waterfront
TTITLE8=Love For Sale
TTITLE9=Moonlight In Vermont
TTITLE10=A Sailboat In The Moonlight
TTITLE11=Blue Moon
TTITLE12=Detour Ahead
TTITLE13=East Of The Sun
TTITLE14=How Deep Is The Ocean
TTITLE15=I Only Have Eyes For You
TTITLE16=You Go To My Head
TTITLE17=Autumn In New York
EXTD=
EXTT0=
EXTT1=
EXTT2=
EXTT3=
EXTT4=
EXTT5=
EXTT6=
EXTT7=
EXTT8=
EXTT9=
EXTT10=
EXTT11=
EXTT12=
EXTT13=
EXTT14=
EXTT15=
EXTT16=
EXTT17=
PLAYORDER=
